<?xml version="1.0" encoding="UTF-8"?>
<svg id="Layer_1" xmlns="http://www.w3.org/2000/svg" version="1.1" viewBox="0 0 140 140">
  <!-- Generator: Adobe Illustrator 29.1.0, SVG Export Plug-In . SVG Version: 2.1.0 Build 142)  -->
  <defs>
    <style>
      .st0 {
        fill: #21a89f;
      }

      .st1 {
        fill: #0c4372;
      }
    </style>
  </defs>
  <path class="st0" d="M2.4,85.6v-29l14.2,14.5-14.2,14.5ZM4.6,62v18.3l8.9-9.2-8.9-9.1Z"/>
  <path class="st0" d="M35.7,118.7l14.5-14.2,14.5,14.1h-29ZM50.2,107.6l-9.2,9h18.3l-9.1-9Z"/>
  <path class="st0" d="M50.1,37.4l-14.6-14.1h29l-14.4,14.1ZM40.9,25.5l9.2,8.9,9.2-9h-18.4Z"/>
  <path class="st0" d="M6.1,47.5l20.5-20.5-.2,20.3-20.3.2ZM24.3,32.3l-13,13,12.8-.2.2-12.8Z"/>
  <path class="st0" d="M73.6,115l.2-20.3,20.3-.3-20.5,20.6ZM76,96.9l-.2,12.8,13-13-12.8.2Z"/>
  <path class="st0" d="M26.6,115l-20.5-20.5,20.3.2.2,20.3ZM11.4,96.7l13,13-.2-12.8-12.8-.2Z"/>
  <path class="st0" d="M94.1,47.5l-20.3-.2-.2-20.3,20.5,20.5ZM76,45.1l12.8.2-13-13,.2,12.8Z"/>
  <g>
    <path class="st1" d="M37.4,79.4v-17h6c6,0,9,2.8,9,8.3s-.8,4.8-2.5,6.3c-1.6,1.6-3.8,2.4-6.6,2.4,0,0-5.9,0-5.9,0ZM41.2,65.5v10.8h1.9c1.7,0,3-.5,3.9-1.5s1.4-2.3,1.4-4.1-.5-2.9-1.4-3.8-2.2-1.4-3.9-1.4h-1.9Z"/>
    <path class="st1" d="M73.9,79.4h-4.2l-1.2-3.8h-6l-1.2,3.8h-4.1l6.2-17h4.5l6,17ZM67.6,72.6l-1.8-5.7c0-.4-.2-.9-.3-1.5h0c0,.5,0,1-.3,1.5l-1.8,5.8h4.3Z"/>
    <path class="st1" d="M99,79.4h-3.8v-10.2c0-1.1,0-2.3,0-3.6h0c-.2,1-.4,1.8-.5,2.2l-4,11.5h-3.1l-4-11.4c0-.3-.3-1.1-.5-2.4h0c0,1.7.2,3.1.2,4.4v9.4h-3.4v-17h5.6l3.5,10.1c.3.8.5,1.6.6,2.4h0c.2-.9.4-1.8.7-2.5l3.5-10h5.2v17.1Z"/>
    <path class="st1" d="M121.4,79.4h-4.2l-1.2-3.8h-6l-1.2,3.8h-4.1l6.2-17h4.5l6,17ZM115.2,72.6l-1.8-5.7c0-.4-.2-.9-.3-1.5h0c0,.5,0,1-.3,1.5l-1.8,5.8h4.3Z"/>
    <path class="st1" d="M139.4,79.4h-13.7v-2.2l8.7-11.7h-8.1v-3.1h13v2.1l-8.5,11.7h8.5v3.2h.1Z"/>
  </g>
  <path class="st0" d="M66.5,95.3v15.5l-16-15.5h-.9l-15.9,15.5v-15.5h0v-5.9c-.2,0-.3-.2-.5-.3l-1.7-1.2v28.1l18.5-18.1,18.6,18v-20.6h-2.1Z"/>
  <path class="st0" d="M22.4,67h0l-12.1-12.3h20.9c.1,0,.2-.2.3-.3l2.1-1.9H5.1l17.2,17.6v-3.1h.1Z"/>
  <path class="st0" d="M68.6,26l-18.5,18.1-18.6-18v28.2l1.7-1.3c0,0,.3-.2.4-.3v-2.6h0v-18.9l16.1,15.6h.7l16-15.7v15.2h2.2v-20.3Z"/>
  <path class="st0" d="M31.6,87.7c-.1,0-.2-.2-.3-.3H10.4l12-12.4v-3.1l-17.2,17.7h28.5l-2.1-1.9Z"/>
</svg>